<svg width="113" height="68" viewBox="0 0 113 68" fill="none" xmlns="http://www.w3.org/2000/svg">
<path d="M33.4164 66.1418C51.0134 66.1418 65.2786 51.8393 65.2786 34.1964C65.2786 16.5534 51.0134 2.25098 33.4164 2.25098C15.8194 2.25098 1.55425 16.5534 1.55425 34.1964C1.55425 51.8393 15.8194 66.1418 33.4164 66.1418Z" fill="#CCCCCB"/>
<path d="M79.3779 66.1418C96.9749 66.1418 111.24 51.8393 111.24 34.1964C111.24 16.5534 96.9749 2.25098 79.3779 2.25098C61.7809 2.25098 47.5157 16.5534 47.5157 34.1964C47.5157 51.8393 61.7809 66.1418 79.3779 66.1418Z" fill="#CCCCCB"/>
<path d="M56.3971 51.1708C59.4935 51.1708 62.0036 48.4798 62.0036 45.1602C62.0036 41.8406 59.4935 39.1496 56.3971 39.1496C53.3008 39.1496 50.7907 41.8406 50.7907 45.1602C50.7907 48.4798 53.3008 51.1708 56.3971 51.1708Z" fill="white"/>
<path d="M92.2004 2.80752C96.2526 4.47714 99.8607 6.87026 103.025 10.0425C106.133 13.1592 108.576 16.8323 110.296 20.9507C112.017 25.0691 112.85 29.3545 112.85 33.8625C112.85 39.9844 111.351 45.6611 108.354 50.7813C105.356 55.9014 101.304 59.9642 96.1971 63.0252C91.0903 66.0305 85.4839 67.5331 79.3779 67.5331C73.4939 67.5331 68.1095 66.1974 63.2803 63.5261C58.3955 60.8547 54.4543 57.2371 51.4013 52.6179C48.3483 47.9986 46.5721 42.8784 46.017 37.2017H75.7143L79.1558 42.4332H52.234C54.0658 48.2768 57.4518 53.0631 62.3921 56.7363C67.3324 60.4651 72.9943 62.3017 79.3779 62.3017C84.4292 62.3017 89.1474 61.0216 93.5327 58.5172C97.9179 55.9571 101.359 52.5066 103.857 48.1655C106.411 43.7689 107.632 39.0383 107.632 33.9181C107.632 28.9093 106.355 24.1787 103.857 19.7263C101.304 15.274 97.8624 11.8235 93.5327 9.31904C89.1474 6.81461 84.4847 5.59022 79.3779 5.59022C76.2139 5.59022 73.2164 6.03545 70.4409 6.98157C67.61 7.92769 66.4998 8.7625 64.1129 10.7104C61.615 12.7696 57.3963 20.4498 56.4527 25.3474V11.4895C57.6183 10.2095 60.6713 5.70152 63.9464 3.97625C68.6646 1.47182 73.827 0.303085 79.4334 0.303085C83.8186 0.303085 88.0928 1.1379 92.2004 2.80752Z" fill="#313F4C"/>
<path d="M81.7648 38.7043C86.5779 38.7043 90.4797 34.7924 90.4797 29.9667C90.4797 25.141 86.5779 21.229 81.7648 21.229C76.9516 21.229 73.0498 25.141 73.0498 29.9667C73.0498 34.7924 76.9516 38.7043 81.7648 38.7043Z" fill="white"/>
<path d="M81.7648 34.5303C84.2786 34.5303 86.3165 32.4871 86.3165 29.9667C86.3165 27.4463 84.2786 25.403 81.7648 25.403C79.2509 25.403 77.213 27.4463 77.213 29.9667C77.213 32.4871 79.2509 34.5303 81.7648 34.5303Z" fill="#313F4C"/>
<path d="M33.4164 0.303085C38.9673 0.303085 44.1297 1.52747 48.9034 3.97625C51.7344 5.42325 55.2315 10.2652 56.3971 11.4895V25.2917C55.4535 20.3942 51.2348 12.7139 48.7369 10.6547C46.35 8.70684 45.2398 7.81638 42.4089 6.92591C39.5779 6.03545 36.5804 5.53456 33.4719 5.53456C28.4206 5.53456 23.7023 6.75895 19.3171 9.26338C14.9319 11.7678 11.4904 15.2184 8.99246 19.6707C6.43904 24.123 5.21785 28.8536 5.21785 33.8625C5.21785 38.9826 6.49455 43.7689 8.99246 48.1099C11.5459 52.5066 14.9874 55.9571 19.3171 58.4615C23.7023 61.0216 28.3651 62.246 33.4719 62.246C39.8555 62.246 45.5174 60.4094 50.4577 56.6806C55.398 52.9518 58.784 48.2212 60.6158 42.3775H33.694L37.1355 37.146H66.8328C66.3333 42.7671 64.557 47.9429 61.4485 52.5622C58.3955 57.1815 54.3988 60.8547 49.5695 63.4704C44.6847 66.1418 39.3004 67.4775 33.4719 67.4775C27.3104 67.4775 21.704 65.9748 16.6527 62.9695C11.5459 59.9642 7.49372 55.9015 4.49623 50.7256C1.49874 45.6055 0 39.9287 0 33.8068C0 29.2988 0.832635 25.0135 2.55341 20.8951C4.27419 16.7767 6.66108 13.1592 9.82509 9.98688C12.9336 6.87026 16.5417 4.42148 20.6493 2.75186C24.646 1.1379 28.9202 0.303085 33.4164 0.303085Z" fill="#313F4C"/>
<path d="M31.1961 38.7043C36.0092 38.7043 39.911 34.7924 39.911 29.9667C39.911 25.141 36.0092 21.229 31.1961 21.229C26.3829 21.229 22.4811 25.141 22.4811 29.9667C22.4811 34.7924 26.3829 38.7043 31.1961 38.7043Z" fill="white"/>
<path d="M31.1961 34.5303C33.7099 34.5303 35.7478 32.4871 35.7478 29.9667C35.7478 27.4463 33.7099 25.403 31.1961 25.403C28.6822 25.403 26.6443 27.4463 26.6443 29.9667C26.6443 32.4871 28.6822 34.5303 31.1961 34.5303Z" fill="#313F4C"/>
</svg>
